<svg xmlns="http://www.w3.org/2000/svg" version="1.1" xmlns:xlink="http://www.w3.org/1999/xlink" width="1000" height="1000"><style>
    #light-icon {
      display: inline;
    }
    #dark-icon {
      display: none;
    }

    @media (prefers-color-scheme: dark) {
      #light-icon {
        display: none;
      }
      #dark-icon {
        display: inline;
      }
    }
  </style><g id="light-icon"><svg xmlns="http://www.w3.org/2000/svg" version="1.1" xmlns:xlink="http://www.w3.org/1999/xlink" width="1000" height="1000"><g><g transform="matrix(1.8148820326678765,0,0,1.8148820326678765,0,0)"><svg xmlns="http://www.w3.org/2000/svg" version="1.1" xmlns:xlink="http://www.w3.org/1999/xlink" width="551" height="551"><svg width="551" height="551" viewBox="0 0 551 551" fill="none" xmlns="http://www.w3.org/2000/svg">
<path fill-rule="evenodd" clip-rule="evenodd" d="M137.546 513.202C269.076 589.142 437.264 544.076 513.203 412.545C516.526 406.79 516.366 399.96 514.367 393.1C514.125 392.267 513.852 391.424 513.551 390.571C511.367 384.382 507.677 377.69 502.908 370.708C492.038 354.792 474.887 336.404 454.421 317.549C413.446 279.797 358.379 239.441 311.296 212.258C264.213 185.075 201.73 157.563 148.549 140.953C121.987 132.657 97.4875 126.998 78.2685 125.542C69.8376 124.903 62.1973 125.054 55.7444 126.256C54.8555 126.422 53.9892 126.608 53.1464 126.814C46.2059 128.513 40.2115 131.79 36.8889 137.545C-39.0502 269.076 6.01549 437.263 137.546 513.202ZM45.5492 142.545C46.9766 140.073 49.9837 137.884 55.5243 136.527C61.0444 135.176 68.4364 134.826 77.513 135.513C85.6744 136.132 94.9621 137.569 105.106 139.712C111.553 141.074 118.346 142.72 125.415 144.623C131.917 146.372 138.652 148.339 145.568 150.498C149.819 151.826 154.132 153.225 158.492 154.689C164.012 156.542 169.61 158.5 175.258 160.549C184.828 164.023 194.543 167.76 204.273 171.704C209.321 173.75 214.374 175.852 219.412 178C228.338 181.806 237.219 185.761 245.956 189.817C250.649 191.996 255.301 194.204 259.895 196.435C268.267 200.501 276.449 204.641 284.347 208.812C288.704 211.113 292.973 213.424 297.141 215.737C300.252 217.464 303.306 219.192 306.296 220.918C310.602 223.404 314.976 226.003 319.402 228.701C323.241 231.042 327.119 233.458 331.023 235.94C337.78 240.237 344.618 244.734 351.478 249.389C355.079 251.832 358.686 254.32 362.29 256.844C368.702 261.336 375.106 265.945 381.453 270.639C384.861 273.159 388.253 275.704 391.621 278.267C397.727 282.914 403.755 287.624 409.661 292.363C412.887 294.952 416.077 297.551 419.224 300.153C425.024 304.951 430.675 309.761 436.131 314.552C439.164 317.215 442.136 319.872 445.041 322.517C445.915 323.314 446.784 324.109 447.646 324.903C452.173 329.074 456.514 333.203 460.64 337.267C463.442 340.026 466.145 342.756 468.74 345.449C473.777 350.678 478.408 355.769 482.567 360.674C485.031 363.579 487.329 366.419 489.447 369.183C491.326 371.633 493.063 374.024 494.65 376.348C496.79 379.48 498.627 382.45 500.157 385.242C501.986 388.581 503.377 391.667 504.322 394.479C504.483 394.96 504.632 395.433 504.767 395.897C506.363 401.374 505.97 405.073 504.543 407.545C503.115 410.017 500.108 412.206 494.568 413.563C489.048 414.914 481.656 415.264 472.579 414.577C464.418 413.958 455.13 412.521 444.986 410.378C438.539 409.017 431.746 407.37 424.677 405.467C418.175 403.718 411.44 401.751 404.524 399.592C400.273 398.264 395.96 396.865 391.6 395.401C386.079 393.548 380.482 391.59 374.834 389.541C365.264 386.068 355.549 382.33 345.819 378.386C340.771 376.34 335.718 374.238 330.68 372.09C321.754 368.284 312.873 364.329 304.136 360.273C299.443 358.094 294.791 355.886 290.197 353.655C281.825 349.589 273.643 345.449 265.745 341.278C261.388 338.977 257.119 336.666 252.951 334.353C249.84 332.626 246.786 330.898 243.796 329.172C239.49 326.686 235.115 324.087 230.689 321.389C226.851 319.048 222.973 316.633 219.069 314.15C212.312 309.854 205.474 305.357 198.614 300.701C195.013 298.258 191.406 295.77 187.802 293.246C181.39 288.755 174.986 284.145 168.639 279.451C165.231 276.931 161.839 274.386 158.471 271.823C152.365 267.176 146.337 262.467 140.431 257.727C137.205 255.138 134.014 252.539 130.868 249.937C125.068 245.139 119.417 240.329 113.961 235.538C110.928 232.875 107.955 230.218 105.051 227.573C104.176 226.776 103.308 225.981 102.446 225.187C97.919 221.016 93.5779 216.887 89.4514 212.823C86.6496 210.064 83.9469 207.334 81.352 204.641C76.3146 199.412 71.6838 194.321 67.5251 189.416C65.0614 186.511 62.7634 183.671 60.6446 180.907C58.7662 178.457 57.0287 176.066 55.4415 173.742C53.302 170.61 51.4649 167.641 49.9347 164.848C48.1057 161.509 46.715 158.423 45.7705 155.611C45.609 155.13 45.4606 154.657 45.3252 154.193C43.7296 148.716 44.1218 145.017 45.5492 142.545ZM471.823 424.548C452.604 423.092 428.104 417.433 401.543 409.137C348.361 392.527 285.879 365.015 238.796 337.832C191.713 310.649 136.646 270.293 95.6705 232.542C75.2053 213.686 58.0544 195.298 47.1838 179.382C42.4152 172.401 38.7254 165.709 36.5406 159.519C-23.6338 283.423 21.3911 434.593 142.546 504.542C263.701 574.491 417.132 537.898 494.348 423.834C487.895 425.036 480.254 425.187 471.823 424.548Z" fill="#404040" style="fill:#404040;fill:color(display-p3 0.2505 0.2505 0.2505);fill-opacity:1;"></path>
<path d="M49.7727 117.293C45.2293 123.796 40.9283 130.549 36.8889 137.545C40.2115 131.79 46.2059 128.513 53.1464 126.814C53.9892 126.608 54.8555 126.422 55.7444 126.256C56.4795 125.17 57.2216 124.091 57.9704 123.02L49.7727 117.293Z" fill="#404040" style="fill:#404040;fill:color(display-p3 0.2505 0.2505 0.2505);fill-opacity:1;"></path>
<path d="M524.3 391.261L515.242 387.025C514.688 388.21 514.124 389.392 513.551 390.571C513.852 391.424 514.125 392.267 514.367 393.1C516.366 399.96 516.526 406.79 513.203 412.545C517.242 405.549 520.94 398.448 524.3 391.261Z" fill="#F5F5F5" style="fill:#F5F5F5;fill:color(display-p3 0.9606 0.9606 0.9606);fill-opacity:1;"></path>
<path d="M536.092 321.075C533.445 336.097 529.467 351.019 524.114 365.675L533.508 369.105C539.063 353.894 543.192 338.405 545.941 322.81L536.092 321.075Z" fill="#E5E5E5" style="fill:#E5E5E5;fill:color(display-p3 0.8982 0.8982 0.8982);fill-opacity:1;"></path>
<path d="M539.061 251.954C540.413 267.251 540.442 282.71 539.101 298.149L549.064 299.014C550.455 282.989 550.425 266.947 549.022 251.074L539.061 251.954Z" fill="#D4D4D4" style="fill:#D4D4D4;fill:color(display-p3 0.8314 0.8314 0.8314);fill-opacity:1;"></path>
<path d="M524.069 184.403C529.338 198.903 533.34 213.84 536.027 229.032L545.874 227.291C543.087 211.529 538.934 196.031 533.467 180.988L524.069 184.403Z" fill="#A1A1A1" style="fill:#A1A1A1;fill:color(display-p3 0.6302 0.6302 0.6302);fill-opacity:1;"></path>
<path d="M492.173 123.009C501.054 135.71 508.757 149.111 515.235 163.035L524.302 158.817C517.58 144.369 509.586 130.461 500.368 117.278L492.173 123.009Z" fill="#A1A1A1" style="fill:#A1A1A1;fill:color(display-p3 0.6302 0.6302 0.6302);fill-opacity:1;"></path>
<path d="M445.431 72.0233C457.394 82.0389 468.3 92.973 478.104 104.659L485.765 98.2319C475.588 86.1009 464.267 74.7511 451.85 64.3557L445.431 72.0233Z" fill="#737373" style="fill:#737373;fill:color(display-p3 0.4515 0.4515 0.4515);fill-opacity:1;"></path>
<path d="M387.026 34.8493C393.953 38.0883 400.799 41.6529 407.546 45.5483C414.293 49.4438 420.803 53.5905 427.072 57.9696L432.798 49.7719C426.295 45.2285 419.542 40.9274 412.546 36.8881C405.55 32.8488 398.448 29.1513 391.262 25.7908L387.026 34.8493Z" fill="#737373" style="fill:#737373;fill:color(display-p3 0.4515 0.4515 0.4515);fill-opacity:1;"></path>
<path d="M321.075 13.9987C336.098 16.6463 351.02 20.624 365.676 25.9766L369.106 16.5835C353.895 11.0279 338.406 6.89891 322.811 4.15046L321.075 13.9987Z" fill="#525252" style="fill:#525252;fill:color(display-p3 0.3220 0.3220 0.3220);fill-opacity:1;"></path>
<path d="M251.955 11.0299C267.252 9.67828 282.71 9.649 298.15 10.9896L299.015 1.02704C282.99 -0.364361 266.948 -0.333762 251.074 1.06873L251.955 11.0299Z" fill="#525252" style="fill:#525252;fill:color(display-p3 0.3220 0.3220 0.3220);fill-opacity:1;"></path>
<path d="M184.404 26.0223C198.904 20.7531 213.841 16.7507 229.033 14.064L227.291 4.21683C211.53 7.00431 196.032 11.1568 180.988 16.6236L184.404 26.0223Z" fill="#525252" style="fill:#525252;fill:color(display-p3 0.3220 0.3220 0.3220);fill-opacity:1;"></path>
<path d="M123.009 57.9184C135.71 49.0375 149.112 41.3338 163.036 34.8555L158.818 25.7888C144.37 32.5108 130.462 40.5054 117.279 49.7231L123.009 57.9184Z" fill="#404040" style="fill:#404040;fill:color(display-p3 0.2505 0.2505 0.2505);fill-opacity:1;"></path>
<path d="M72.0241 104.66C82.0397 92.6971 92.9737 81.7913 104.66 71.987L98.2327 64.3261C86.1017 74.5035 74.7519 85.8241 64.3565 98.2409L72.0241 104.66Z" fill="#404040" style="fill:#404040;fill:color(display-p3 0.2505 0.2505 0.2505);fill-opacity:1;"></path>
<path d="M45.7705 155.611C46.715 158.423 48.1057 161.509 49.9347 164.848L125.415 144.623C118.346 142.72 111.553 141.074 105.106 139.712L45.7705 155.611Z" fill="#155DFC" style="fill:#155DFC;fill:color(display-p3 0.0836 0.3644 0.9863);fill-opacity:1;"></path>
<path d="M60.6446 180.907C62.7634 183.671 65.0614 186.511 67.5251 189.416L175.258 160.549C169.61 158.5 164.012 156.542 158.492 154.689L60.6446 180.907Z" fill="#2B7FFF" style="fill:#2B7FFF;fill:color(display-p3 0.1693 0.4980 1.0000);fill-opacity:1;"></path>
<path d="M81.352 204.641C83.9469 207.334 86.6496 210.064 89.4514 212.823L219.412 178C214.374 175.852 209.321 173.75 204.273 171.704L81.352 204.641Z" fill="#51A2FF" style="fill:#51A2FF;fill:color(display-p3 0.3158 0.6356 1.0000);fill-opacity:1;"></path>
<path d="M105.051 227.573C107.955 230.218 110.928 232.875 113.961 235.538L259.895 196.435C255.301 194.204 250.649 191.996 245.956 189.817L105.051 227.573Z" fill="#8EC5FF" style="fill:#8EC5FF;fill:color(display-p3 0.5566 0.7732 1.0000);fill-opacity:1;"></path>
<path d="M130.868 249.937C134.014 252.539 137.205 255.138 140.431 257.727L297.141 215.737C292.973 213.424 288.704 211.113 284.347 208.812L130.868 249.937Z" fill="#8EC5FF" style="fill:#8EC5FF;fill:color(display-p3 0.5566 0.7732 1.0000);fill-opacity:1;"></path>
<path d="M158.471 271.823C161.839 274.386 165.231 276.931 168.639 279.451L331.023 235.94C327.119 233.458 323.241 231.042 319.402 228.701L158.471 271.823Z" fill="#A3B3FF" style="fill:#A3B3FF;fill:color(display-p3 0.6391 0.7021 1.0000);fill-opacity:1;"></path>
<path d="M187.802 293.246C191.406 295.77 195.013 298.258 198.614 300.701L362.29 256.844C358.686 254.32 355.079 251.832 351.478 249.389L187.802 293.246Z" fill="#C6D2FF" style="fill:#C6D2FF;fill:color(display-p3 0.7784 0.8232 1.0000);fill-opacity:1;"></path>
<path d="M219.069 314.15C222.973 316.633 226.851 319.048 230.689 321.389L391.621 278.267C388.253 275.704 384.861 273.159 381.453 270.639L219.069 314.15Z" fill="#C6D2FF" style="fill:#C6D2FF;fill:color(display-p3 0.7784 0.8232 1.0000);fill-opacity:1;"></path>
<path d="M252.951 334.353C257.119 336.666 261.388 338.977 265.745 341.278L419.224 300.153C416.077 297.551 412.887 294.952 409.661 292.363L252.951 334.353Z" fill="#E0E7FF" style="fill:#E0E7FF;fill:color(display-p3 0.8780 0.9059 1.0000);fill-opacity:1;"></path>
<path d="M290.197 353.655C294.791 355.886 299.443 358.094 304.136 360.273L445.041 322.517C442.136 319.872 439.164 317.215 436.131 314.552L290.197 353.655Z" fill="#EEF2FF" style="fill:#EEF2FF;fill:color(display-p3 0.9334 0.9491 1.0000);fill-opacity:1;"></path>
<path d="M330.68 372.09C335.718 374.238 340.771 376.34 345.819 378.386L468.74 345.449C466.145 342.756 463.442 340.026 460.64 337.267L330.68 372.09Z" fill="#F7FEE7" style="fill:#F7FEE7;fill:color(display-p3 0.9690 0.9965 0.9062);fill-opacity:1;"></path>
<path d="M374.834 389.541C380.482 391.59 386.079 393.548 391.6 395.401L489.447 369.183C487.329 366.419 485.031 363.579 482.567 360.674L374.834 389.541Z" fill="#ECFCCA" style="fill:#ECFCCA;fill:color(display-p3 0.9251 0.9888 0.7934);fill-opacity:1;"></path>
<path d="M424.677 405.467C431.746 407.37 438.539 409.017 444.986 410.378L504.322 394.479C503.377 391.667 501.986 388.581 500.157 385.242L424.677 405.467Z" fill="#D8F999" style="fill:#D8F999;fill:color(display-p3 0.8478 0.9783 0.5999);fill-opacity:1;"></path>
</svg></svg></g></g></svg></g><g id="dark-icon"><svg xmlns="http://www.w3.org/2000/svg" version="1.1" xmlns:xlink="http://www.w3.org/1999/xlink" width="1000" height="1000"><g><g transform="matrix(1.8148820326678765,0,0,1.8148820326678765,0,0)"><svg xmlns="http://www.w3.org/2000/svg" version="1.1" xmlns:xlink="http://www.w3.org/1999/xlink" width="551" height="551"><svg width="551" height="551" viewBox="0 0 551 551" fill="none" xmlns="http://www.w3.org/2000/svg">
<path fill-rule="evenodd" clip-rule="evenodd" d="M137.546 513.202C269.076 589.142 437.264 544.076 513.203 412.545C516.526 406.79 516.366 399.96 514.367 393.1C514.125 392.267 513.852 391.424 513.551 390.571C511.367 384.382 507.677 377.69 502.908 370.708C492.038 354.792 474.887 336.404 454.421 317.549C413.446 279.797 358.379 239.441 311.296 212.258C264.213 185.075 201.73 157.563 148.549 140.953C121.987 132.657 97.4875 126.998 78.2685 125.542C69.8376 124.903 62.1973 125.054 55.7444 126.256C54.8555 126.422 53.9892 126.608 53.1464 126.814C46.2059 128.513 40.2115 131.79 36.8889 137.545C-39.0502 269.076 6.01549 437.263 137.546 513.202ZM45.5492 142.545C46.9766 140.073 49.9837 137.884 55.5243 136.527C61.0444 135.176 68.4364 134.826 77.513 135.513C85.6744 136.132 94.9621 137.569 105.106 139.712C111.553 141.074 118.346 142.72 125.415 144.623C131.917 146.372 138.652 148.339 145.568 150.498C149.819 151.826 154.132 153.225 158.492 154.689C164.012 156.542 169.61 158.5 175.258 160.549C184.828 164.023 194.543 167.76 204.273 171.704C209.321 173.75 214.374 175.852 219.412 178C228.338 181.806 237.219 185.761 245.956 189.817C250.649 191.996 255.301 194.204 259.895 196.435C268.267 200.501 276.449 204.641 284.347 208.812C288.704 211.113 292.973 213.424 297.141 215.737C300.252 217.464 303.306 219.192 306.296 220.918C310.602 223.404 314.976 226.003 319.402 228.701C323.241 231.042 327.119 233.458 331.023 235.94C337.78 240.237 344.618 244.734 351.478 249.389C355.079 251.832 358.686 254.32 362.29 256.844C368.702 261.336 375.106 265.945 381.453 270.639C384.861 273.159 388.253 275.704 391.621 278.267C397.727 282.914 403.755 287.624 409.661 292.363C412.887 294.952 416.077 297.551 419.224 300.153C425.024 304.951 430.675 309.761 436.131 314.552C439.164 317.215 442.136 319.872 445.041 322.517C445.915 323.314 446.784 324.109 447.646 324.903C452.173 329.074 456.514 333.203 460.64 337.267C463.442 340.026 466.145 342.756 468.74 345.449C473.777 350.678 478.408 355.769 482.567 360.674C485.031 363.579 487.329 366.419 489.447 369.183C491.326 371.633 493.063 374.024 494.65 376.348C496.79 379.48 498.627 382.45 500.157 385.242C501.986 388.581 503.377 391.667 504.322 394.479C504.483 394.96 504.632 395.433 504.767 395.897C506.363 401.374 505.97 405.073 504.543 407.545C503.115 410.017 500.108 412.206 494.568 413.563C489.048 414.914 481.656 415.264 472.579 414.577C464.418 413.958 455.13 412.521 444.986 410.378C438.539 409.017 431.746 407.37 424.677 405.467C418.175 403.718 411.44 401.751 404.524 399.592C400.273 398.264 395.96 396.865 391.6 395.401C386.079 393.548 380.482 391.59 374.834 389.541C365.264 386.068 355.549 382.33 345.819 378.386C340.771 376.34 335.718 374.238 330.68 372.09C321.754 368.284 312.873 364.329 304.136 360.273C299.443 358.094 294.791 355.886 290.197 353.655C281.825 349.589 273.643 345.449 265.745 341.278C261.388 338.977 257.119 336.666 252.951 334.353C249.84 332.626 246.786 330.898 243.796 329.172C239.49 326.686 235.115 324.087 230.689 321.389C226.851 319.048 222.973 316.633 219.069 314.15C212.312 309.854 205.474 305.357 198.614 300.701C195.013 298.258 191.406 295.77 187.802 293.246C181.39 288.755 174.986 284.145 168.639 279.451C165.231 276.931 161.839 274.386 158.471 271.823C152.365 267.176 146.337 262.467 140.431 257.727C137.205 255.138 134.014 252.539 130.868 249.937C125.068 245.139 119.417 240.329 113.961 235.538C110.928 232.875 107.955 230.218 105.051 227.573C104.176 226.776 103.308 225.981 102.446 225.187C97.919 221.016 93.5779 216.887 89.4514 212.823C86.6496 210.064 83.9469 207.334 81.352 204.641C76.3146 199.412 71.6838 194.321 67.5251 189.416C65.0614 186.511 62.7634 183.671 60.6446 180.907C58.7662 178.457 57.0287 176.066 55.4415 173.742C53.302 170.61 51.4649 167.641 49.9347 164.848C48.1057 161.509 46.715 158.423 45.7705 155.611C45.609 155.13 45.4606 154.657 45.3252 154.193C43.7296 148.716 44.1218 145.017 45.5492 142.545ZM471.823 424.548C452.604 423.092 428.104 417.433 401.543 409.137C348.361 392.527 285.879 365.015 238.796 337.832C191.713 310.649 136.646 270.293 95.6705 232.542C75.2053 213.686 58.0544 195.298 47.1838 179.382C42.4152 172.401 38.7254 165.709 36.5406 159.519C-23.6338 283.423 21.3911 434.593 142.546 504.542C263.701 574.491 417.132 537.898 494.348 423.834C487.895 425.036 480.254 425.187 471.823 424.548Z" fill="#FAFAFA" style="fill:#FAFAFA;fill:color(display-p3 0.9803 0.9803 0.9803);fill-opacity:1;"></path>
<path d="M49.7727 117.293C45.2293 123.796 40.9283 130.549 36.8889 137.545C40.2115 131.79 46.2059 128.513 53.1464 126.814C53.9892 126.608 54.8555 126.422 55.7444 126.256C56.4795 125.17 57.2216 124.091 57.9704 123.02L49.7727 117.293Z" fill="#FAFAFA" style="fill:#FAFAFA;fill:color(display-p3 0.9803 0.9803 0.9803);fill-opacity:1;"></path>
<path d="M524.3 391.261L515.242 387.025C514.688 388.21 514.124 389.392 513.551 390.571C513.852 391.424 514.125 392.267 514.367 393.1C516.366 399.96 516.526 406.79 513.203 412.545C517.242 405.549 520.94 398.448 524.3 391.261Z" fill="#525252" style="fill:#525252;fill:color(display-p3 0.3220 0.3220 0.3220);fill-opacity:1;"></path>
<path d="M536.092 321.075C533.445 336.097 529.467 351.019 524.114 365.675L533.508 369.105C539.063 353.894 543.192 338.405 545.941 322.81L536.092 321.075Z" fill="#737373" style="fill:#737373;fill:color(display-p3 0.4515 0.4515 0.4515);fill-opacity:1;"></path>
<path d="M539.061 251.954C540.413 267.251 540.442 282.71 539.101 298.149L549.064 299.014C550.455 282.989 550.425 266.947 549.022 251.074L539.061 251.954Z" fill="#A1A1A1" style="fill:#A1A1A1;fill:color(display-p3 0.6302 0.6302 0.6302);fill-opacity:1;"></path>
<path d="M524.069 184.403C529.338 198.903 533.34 213.84 536.027 229.032L545.874 227.291C543.087 211.529 538.934 196.031 533.467 180.988L524.069 184.403Z" fill="#A1A1A1" style="fill:#A1A1A1;fill:color(display-p3 0.6302 0.6302 0.6302);fill-opacity:1;"></path>
<path d="M492.173 123.009C501.054 135.71 508.757 149.111 515.235 163.035L524.302 158.817C517.58 144.369 509.586 130.461 500.368 117.278L492.173 123.009Z" fill="#D4D4D4" style="fill:#D4D4D4;fill:color(display-p3 0.8314 0.8314 0.8314);fill-opacity:1;"></path>
<path d="M445.431 72.0233C457.394 82.0389 468.3 92.973 478.104 104.659L485.765 98.2319C475.588 86.1009 464.267 74.7511 451.85 64.3557L445.431 72.0233Z" fill="#E5E5E5" style="fill:#E5E5E5;fill:color(display-p3 0.8982 0.8982 0.8982);fill-opacity:1;"></path>
<path d="M387.026 34.8493C393.953 38.0883 400.799 41.6529 407.546 45.5483C414.293 49.4438 420.803 53.5905 427.072 57.9696L432.798 49.7719C426.295 45.2285 419.542 40.9274 412.546 36.8881C405.55 32.8488 398.448 29.1513 391.262 25.7908L387.026 34.8493Z" fill="#E5E5E5" style="fill:#E5E5E5;fill:color(display-p3 0.8982 0.8982 0.8982);fill-opacity:1;"></path>
<path d="M321.075 13.9987C336.098 16.6463 351.02 20.624 365.676 25.9766L369.106 16.5835C353.895 11.0279 338.406 6.89891 322.811 4.15046L321.075 13.9987Z" fill="#F5F5F5" style="fill:#F5F5F5;fill:color(display-p3 0.9606 0.9606 0.9606);fill-opacity:1;"></path>
<path d="M251.955 11.0299C267.252 9.67828 282.71 9.649 298.15 10.9896L299.015 1.02704C282.99 -0.364361 266.948 -0.333762 251.074 1.06873L251.955 11.0299Z" fill="#F5F5F5" style="fill:#F5F5F5;fill:color(display-p3 0.9606 0.9606 0.9606);fill-opacity:1;"></path>
<path d="M184.404 26.0223C198.904 20.7531 213.841 16.7507 229.033 14.064L227.291 4.21683C211.53 7.00431 196.032 11.1568 180.988 16.6236L184.404 26.0223Z" fill="#F5F5F5" style="fill:#F5F5F5;fill:color(display-p3 0.9606 0.9606 0.9606);fill-opacity:1;"></path>
<path d="M123.009 57.9184C135.71 49.0375 149.112 41.3338 163.036 34.8555L158.818 25.7888C144.37 32.5108 130.462 40.5054 117.279 49.7231L123.009 57.9184Z" fill="#FAFAFA" style="fill:#FAFAFA;fill:color(display-p3 0.9803 0.9803 0.9803);fill-opacity:1;"></path>
<path d="M72.0241 104.66C82.0397 92.6971 92.9737 81.7913 104.66 71.987L98.2327 64.3261C86.1017 74.5035 74.7519 85.8241 64.3565 98.2409L72.0241 104.66Z" fill="#FAFAFA" style="fill:#FAFAFA;fill:color(display-p3 0.9803 0.9803 0.9803);fill-opacity:1;"></path>
<path d="M45.7705 155.611C46.715 158.423 48.1057 161.509 49.9347 164.848L125.415 144.623C118.346 142.72 111.553 141.074 105.106 139.712L45.7705 155.611Z" fill="#155DFC" style="fill:#155DFC;fill:color(display-p3 0.0836 0.3644 0.9863);fill-opacity:1;"></path>
<path d="M60.6446 180.907C62.7634 183.671 65.0614 186.511 67.5251 189.416L175.258 160.549C169.61 158.5 164.012 156.542 158.492 154.689L60.6446 180.907Z" fill="#2B7FFF" style="fill:#2B7FFF;fill:color(display-p3 0.1693 0.4980 1.0000);fill-opacity:1;"></path>
<path d="M81.352 204.641C83.9469 207.334 86.6496 210.064 89.4514 212.823L219.412 178C214.374 175.852 209.321 173.75 204.273 171.704L81.352 204.641Z" fill="#51A2FF" style="fill:#51A2FF;fill:color(display-p3 0.3158 0.6356 1.0000);fill-opacity:1;"></path>
<path d="M105.051 227.573C107.955 230.218 110.928 232.875 113.961 235.538L259.895 196.435C255.301 194.204 250.649 191.996 245.956 189.817L105.051 227.573Z" fill="#8EC5FF" style="fill:#8EC5FF;fill:color(display-p3 0.5566 0.7732 1.0000);fill-opacity:1;"></path>
<path d="M130.868 249.937C134.014 252.539 137.205 255.138 140.431 257.727L297.141 215.737C292.973 213.424 288.704 211.113 284.347 208.812L130.868 249.937Z" fill="#8EC5FF" style="fill:#8EC5FF;fill:color(display-p3 0.5566 0.7732 1.0000);fill-opacity:1;"></path>
<path d="M158.471 271.823C161.839 274.386 165.231 276.931 168.639 279.451L331.023 235.94C327.119 233.458 323.241 231.042 319.402 228.701L158.471 271.823Z" fill="#A3B3FF" style="fill:#A3B3FF;fill:color(display-p3 0.6391 0.7021 1.0000);fill-opacity:1;"></path>
<path d="M187.802 293.246C191.406 295.77 195.013 298.258 198.614 300.701L362.29 256.844C358.686 254.32 355.079 251.832 351.478 249.389L187.802 293.246Z" fill="#C6D2FF" style="fill:#C6D2FF;fill:color(display-p3 0.7784 0.8232 1.0000);fill-opacity:1;"></path>
<path d="M219.069 314.15C222.973 316.633 226.851 319.048 230.689 321.389L391.621 278.267C388.253 275.704 384.861 273.159 381.453 270.639L219.069 314.15Z" fill="#C6D2FF" style="fill:#C6D2FF;fill:color(display-p3 0.7784 0.8232 1.0000);fill-opacity:1;"></path>
<path d="M252.951 334.353C257.119 336.666 261.388 338.977 265.745 341.278L419.224 300.153C416.077 297.551 412.887 294.952 409.661 292.363L252.951 334.353Z" fill="#E0E7FF" style="fill:#E0E7FF;fill:color(display-p3 0.8780 0.9059 1.0000);fill-opacity:1;"></path>
<path d="M290.197 353.655C294.791 355.886 299.443 358.094 304.136 360.273L445.041 322.517C442.136 319.872 439.164 317.215 436.131 314.552L290.197 353.655Z" fill="#EEF2FF" style="fill:#EEF2FF;fill:color(display-p3 0.9334 0.9491 1.0000);fill-opacity:1;"></path>
<path d="M330.68 372.09C335.718 374.238 340.771 376.34 345.819 378.386L468.74 345.449C466.145 342.756 463.442 340.026 460.64 337.267L330.68 372.09Z" fill="#F7FEE7" style="fill:#F7FEE7;fill:color(display-p3 0.9690 0.9965 0.9062);fill-opacity:1;"></path>
<path d="M374.834 389.541C380.482 391.59 386.079 393.548 391.6 395.401L489.447 369.183C487.329 366.419 485.031 363.579 482.567 360.674L374.834 389.541Z" fill="#ECFCCA" style="fill:#ECFCCA;fill:color(display-p3 0.9251 0.9888 0.7934);fill-opacity:1;"></path>
<path d="M424.677 405.467C431.746 407.37 438.539 409.017 444.986 410.378L504.322 394.479C503.377 391.667 501.986 388.581 500.157 385.242L424.677 405.467Z" fill="#D8F999" style="fill:#D8F999;fill:color(display-p3 0.8478 0.9783 0.5999);fill-opacity:1;"></path>
</svg></svg></g></g></svg></g></svg>