<svg width="1200" height="1200" viewBox="0 0 1200 1200" fill="none" xmlns="http://www.w3.org/2000/svg">
<path fill-rule="evenodd" clip-rule="evenodd" d="M462.546 838.202C594.076 914.142 762.264 869.076 838.203 737.545C841.526 731.79 841.366 724.96 839.367 718.1C839.125 717.267 838.852 716.424 838.551 715.571C836.367 709.382 832.677 702.69 827.908 695.708C817.038 679.792 799.887 661.404 779.421 642.549C738.446 604.797 683.379 564.441 636.296 537.258C589.213 510.075 526.73 482.563 473.549 465.953C446.987 457.657 422.487 451.998 403.269 450.542C394.838 449.903 387.197 450.054 380.744 451.256C379.855 451.422 378.989 451.608 378.146 451.814C371.206 453.513 365.212 456.79 361.889 462.545C285.95 594.076 331.015 762.263 462.546 838.202ZM370.549 467.545C371.977 465.073 374.984 462.884 380.524 461.527C386.044 460.176 393.436 459.826 402.513 460.513C410.674 461.132 419.962 462.569 430.106 464.712C436.553 466.074 443.346 467.72 450.415 469.623C456.917 471.372 463.652 473.339 470.568 475.498C474.819 476.826 479.132 478.225 483.492 479.689C489.012 481.542 494.61 483.5 500.258 485.549C509.828 489.023 519.543 492.76 529.273 496.704C534.321 498.75 539.374 500.852 544.412 503C553.338 506.806 562.219 510.761 570.956 514.817C575.649 516.996 580.301 519.204 584.895 521.435C593.267 525.501 601.449 529.641 609.347 533.812C613.704 536.113 617.973 538.424 622.141 540.737C625.252 542.464 628.306 544.192 631.296 545.918C635.602 548.404 639.976 551.003 644.402 553.701C648.241 556.042 652.119 558.458 656.023 560.94C662.78 565.237 669.618 569.734 676.478 574.389C680.079 576.832 683.686 579.32 687.29 581.844C693.702 586.336 700.106 590.945 706.453 595.639C709.861 598.159 713.253 600.704 716.621 603.267C722.727 607.914 728.755 612.624 734.661 617.363C737.887 619.952 741.077 622.551 744.224 625.153C750.024 629.951 755.675 634.761 761.131 639.552C764.164 642.215 767.136 644.872 770.041 647.517C770.915 648.314 771.784 649.109 772.646 649.903C777.173 654.074 781.514 658.203 785.64 662.267C788.442 665.026 791.145 667.756 793.74 670.449C798.777 675.678 803.408 680.769 807.567 685.674C810.031 688.579 812.329 691.419 814.447 694.183C816.326 696.633 818.063 699.024 819.65 701.348C821.79 704.48 823.627 707.45 825.157 710.242C826.986 713.581 828.377 716.667 829.322 719.479C829.483 719.96 829.632 720.433 829.767 720.897C831.363 726.374 830.97 730.073 829.543 732.545C828.115 735.017 825.108 737.206 819.568 738.563C814.048 739.914 806.656 740.264 797.579 739.577C789.418 738.958 780.13 737.521 769.986 735.378C763.539 734.017 756.746 732.37 749.677 730.467C743.175 728.718 736.44 726.751 729.524 724.592C725.273 723.264 720.96 721.865 716.6 720.401C711.079 718.548 705.482 716.59 699.834 714.541C690.264 711.068 680.549 707.33 670.819 703.386C665.771 701.34 660.718 699.238 655.68 697.09C646.754 693.284 637.873 689.329 629.136 685.273C624.443 683.094 619.791 680.886 615.197 678.655C606.825 674.589 598.643 670.449 590.745 666.278C586.388 663.977 582.119 661.666 577.951 659.353C574.84 657.626 571.786 655.898 568.796 654.172C564.49 651.686 560.115 649.087 555.689 646.389C551.851 644.048 547.973 641.633 544.069 639.15C537.312 634.854 530.474 630.357 523.614 625.701C520.013 623.258 516.406 620.77 512.802 618.246C506.39 613.755 499.986 609.145 493.639 604.451C490.231 601.931 486.839 599.386 483.471 596.823C477.365 592.176 471.337 587.467 465.431 582.727C462.205 580.138 459.014 577.539 455.868 574.937C450.068 570.139 444.417 565.329 438.961 560.538C435.928 557.875 432.955 555.218 430.051 552.573C429.176 551.776 428.308 550.981 427.446 550.187C422.919 546.016 418.578 541.887 414.451 537.823C411.65 535.064 408.947 532.334 406.352 529.641C401.315 524.412 396.684 519.321 392.525 514.416C390.061 511.511 387.763 508.671 385.645 505.907C383.766 503.457 382.029 501.066 380.442 498.742C378.302 495.61 376.465 492.641 374.935 489.848C373.106 486.509 371.715 483.423 370.77 480.611C370.609 480.13 370.461 479.657 370.325 479.193C368.73 473.716 369.122 470.017 370.549 467.545ZM796.823 749.548C777.604 748.092 753.104 742.433 726.543 734.137C673.361 717.527 610.879 690.015 563.796 662.832C516.713 635.649 461.646 595.293 420.67 557.542C400.205 538.686 383.054 520.298 372.184 504.382C367.415 497.401 363.725 490.709 361.541 484.519C301.366 608.423 346.391 759.593 467.546 829.542C588.701 899.491 742.132 862.898 819.348 748.834C812.895 750.036 805.254 750.187 796.823 749.548Z" fill="#404040" style="fill:#404040;fill:color(display-p3 0.2505 0.2505 0.2505);fill-opacity:1;"/>
<path d="M374.773 442.293C370.229 448.796 365.928 455.549 361.889 462.545C365.212 456.79 371.206 453.513 378.146 451.814C378.989 451.608 379.855 451.422 380.744 451.256C381.48 450.17 382.222 449.091 382.97 448.02L374.773 442.293Z" fill="#404040" style="fill:#404040;fill:color(display-p3 0.2505 0.2505 0.2505);fill-opacity:1;"/>
<path d="M849.3 716.261L840.242 712.025C839.688 713.21 839.124 714.392 838.551 715.571C838.852 716.424 839.125 717.267 839.367 718.1C841.366 724.96 841.526 731.79 838.203 737.545C842.242 730.549 845.94 723.448 849.3 716.261Z" fill="#F5F5F5" style="fill:#F5F5F5;fill:color(display-p3 0.9606 0.9606 0.9606);fill-opacity:1;"/>
<path d="M861.092 646.075C858.445 661.097 854.467 676.019 849.114 690.675L858.508 694.105C864.063 678.894 868.192 663.405 870.941 647.81L861.092 646.075Z" fill="#E5E5E5" style="fill:#E5E5E5;fill:color(display-p3 0.8982 0.8982 0.8982);fill-opacity:1;"/>
<path d="M864.061 576.954C865.413 592.251 865.442 607.71 864.101 623.149L874.064 624.014C875.455 607.989 875.425 591.947 874.022 576.074L864.061 576.954Z" fill="#D4D4D4" style="fill:#D4D4D4;fill:color(display-p3 0.8314 0.8314 0.8314);fill-opacity:1;"/>
<path d="M849.069 509.403C854.338 523.903 858.34 538.84 861.027 554.032L870.874 552.291C868.087 536.529 863.934 521.031 858.467 505.988L849.069 509.403Z" fill="#A1A1A1" style="fill:#A1A1A1;fill:color(display-p3 0.6302 0.6302 0.6302);fill-opacity:1;"/>
<path d="M817.173 448.009C826.054 460.71 833.757 474.111 840.235 488.035L849.302 483.817C842.58 469.369 834.586 455.461 825.368 442.278L817.173 448.009Z" fill="#A1A1A1" style="fill:#A1A1A1;fill:color(display-p3 0.6302 0.6302 0.6302);fill-opacity:1;"/>
<path d="M770.431 397.023C782.394 407.039 793.3 417.973 803.104 429.659L810.765 423.232C800.588 411.101 789.267 399.751 776.85 389.356L770.431 397.023Z" fill="#737373" style="fill:#737373;fill:color(display-p3 0.4515 0.4515 0.4515);fill-opacity:1;"/>
<path d="M712.026 359.849C718.953 363.088 725.799 366.653 732.546 370.548C739.293 374.444 745.803 378.591 752.072 382.97L757.798 374.772C751.295 370.228 744.542 365.927 737.546 361.888C730.55 357.849 723.448 354.151 716.262 350.791L712.026 359.849Z" fill="#737373" style="fill:#737373;fill:color(display-p3 0.4515 0.4515 0.4515);fill-opacity:1;"/>
<path d="M646.075 338.999C661.098 341.646 676.02 345.624 690.676 350.977L694.106 341.583C678.895 336.028 663.406 331.899 647.811 329.15L646.075 338.999Z" fill="#525252" style="fill:#525252;fill:color(display-p3 0.3220 0.3220 0.3220);fill-opacity:1;"/>
<path d="M576.955 336.03C592.252 334.678 607.71 334.649 623.15 335.99L624.015 326.027C607.99 324.636 591.948 324.666 576.074 326.069L576.955 336.03Z" fill="#525252" style="fill:#525252;fill:color(display-p3 0.3220 0.3220 0.3220);fill-opacity:1;"/>
<path d="M509.404 351.022C523.904 345.753 538.841 341.751 554.033 339.064L552.291 329.217C536.53 332.004 521.032 336.157 505.988 341.624L509.404 351.022Z" fill="#525252" style="fill:#525252;fill:color(display-p3 0.3220 0.3220 0.3220);fill-opacity:1;"/>
<path d="M448.009 382.918C460.71 374.038 474.112 366.334 488.036 359.856L483.818 350.789C469.37 357.511 455.462 365.505 442.279 374.723L448.009 382.918Z" fill="#404040" style="fill:#404040;fill:color(display-p3 0.2505 0.2505 0.2505);fill-opacity:1;"/>
<path d="M397.024 429.66C407.04 417.697 417.974 406.791 429.66 396.987L423.233 389.326C411.102 399.504 399.752 410.824 389.356 423.241L397.024 429.66Z" fill="#404040" style="fill:#404040;fill:color(display-p3 0.2505 0.2505 0.2505);fill-opacity:1;"/>
<path d="M370.77 480.611C371.715 483.423 373.106 486.509 374.935 489.848L450.415 469.623C443.346 467.72 436.553 466.074 430.106 464.712L370.77 480.611Z" fill="#155DFC" style="fill:#155DFC;fill:color(display-p3 0.0836 0.3644 0.9863);fill-opacity:1;"/>
<path d="M385.645 505.907C387.763 508.671 390.061 511.511 392.525 514.416L500.258 485.549C494.61 483.5 489.012 481.542 483.492 479.689L385.645 505.907Z" fill="#2B7FFF" style="fill:#2B7FFF;fill:color(display-p3 0.1693 0.4980 1.0000);fill-opacity:1;"/>
<path d="M406.352 529.641C408.947 532.334 411.65 535.064 414.451 537.823L544.412 503C539.374 500.852 534.321 498.75 529.273 496.704L406.352 529.641Z" fill="#51A2FF" style="fill:#51A2FF;fill:color(display-p3 0.3158 0.6356 1.0000);fill-opacity:1;"/>
<path d="M430.051 552.573C432.955 555.218 435.928 557.875 438.961 560.538L584.895 521.435C580.301 519.204 575.649 516.996 570.956 514.817L430.051 552.573Z" fill="#8EC5FF" style="fill:#8EC5FF;fill:color(display-p3 0.5566 0.7732 1.0000);fill-opacity:1;"/>
<path d="M455.868 574.937C459.014 577.539 462.205 580.138 465.431 582.727L622.141 540.737C617.973 538.424 613.704 536.113 609.347 533.812L455.868 574.937Z" fill="#8EC5FF" style="fill:#8EC5FF;fill:color(display-p3 0.5566 0.7732 1.0000);fill-opacity:1;"/>
<path d="M483.471 596.823C486.839 599.386 490.231 601.931 493.639 604.451L656.023 560.94C652.119 558.458 648.241 556.042 644.402 553.701L483.471 596.823Z" fill="#A3B3FF" style="fill:#A3B3FF;fill:color(display-p3 0.6391 0.7021 1.0000);fill-opacity:1;"/>
<path d="M512.802 618.246C516.406 620.77 520.013 623.258 523.614 625.701L687.29 581.844C683.686 579.32 680.079 576.832 676.478 574.389L512.802 618.246Z" fill="#C6D2FF" style="fill:#C6D2FF;fill:color(display-p3 0.7784 0.8232 1.0000);fill-opacity:1;"/>
<path d="M544.069 639.15C547.973 641.633 551.851 644.048 555.689 646.389L716.621 603.267C713.253 600.704 709.861 598.159 706.453 595.639L544.069 639.15Z" fill="#C6D2FF" style="fill:#C6D2FF;fill:color(display-p3 0.7784 0.8232 1.0000);fill-opacity:1;"/>
<path d="M577.951 659.353C582.119 661.666 586.388 663.977 590.745 666.278L744.224 625.153C741.077 622.551 737.887 619.952 734.661 617.363L577.951 659.353Z" fill="#E0E7FF" style="fill:#E0E7FF;fill:color(display-p3 0.8780 0.9059 1.0000);fill-opacity:1;"/>
<path d="M615.197 678.655C619.791 680.886 624.443 683.094 629.136 685.273L770.041 647.517C767.136 644.872 764.164 642.215 761.131 639.552L615.197 678.655Z" fill="#EEF2FF" style="fill:#EEF2FF;fill:color(display-p3 0.9334 0.9491 1.0000);fill-opacity:1;"/>
<path d="M655.68 697.09C660.718 699.238 665.771 701.34 670.819 703.386L793.74 670.449C791.145 667.756 788.442 665.026 785.64 662.267L655.68 697.09Z" fill="#F7FEE7" style="fill:#F7FEE7;fill:color(display-p3 0.9690 0.9965 0.9062);fill-opacity:1;"/>
<path d="M699.834 714.541C705.482 716.59 711.079 718.548 716.6 720.401L814.447 694.183C812.329 691.419 810.031 688.579 807.567 685.674L699.834 714.541Z" fill="#ECFCCA" style="fill:#ECFCCA;fill:color(display-p3 0.9251 0.9888 0.7934);fill-opacity:1;"/>
<path d="M749.677 730.467C756.746 732.37 763.539 734.017 769.986 735.378L829.322 719.479C828.377 716.667 826.986 713.581 825.157 710.242L749.677 730.467Z" fill="#D8F999" style="fill:#D8F999;fill:color(display-p3 0.8478 0.9783 0.5999);fill-opacity:1;"/>
</svg>
